# xmcd CD database file
#
# Track frame offsets:
#	182
#	45025
#	105717
#	145550
#	200082
#	225210
#
# Disc length: 3775 seconds
#
# Revision: 6
# Processed by: cddbd v1.5.2PL0 Copyright (c) Steve Scherf et al.
# Submitted via: CDex 1.70beta2
#
DISCID=3e0ebd06
DTITLE=Various Artist - Classical Highlights - Dvorák and Smetana [CD8)
DYEAR=1993
DGENRE=Classical
TTITLE0=Dvorák - Symphony No.9 (5) in e-minor op.95 (From the new world), Adagio. Allegro Molto
TTITLE1=Dvorák - Symphony No.9 (5) in e-minor op.95 (From the new world), Largo
TTITLE2=Dvorák - Symphony No.9 (5) in e-minor op.95 (From the new world), Scherzo-Molto Vivace-Poco Sustenuto
TTITLE3=Dvorák - Symphony No.9 (5) in e-minor op.95 (From the new world), Allegro Con Fuoco
TTITLE4=Dvorák - Slovenian Dance No.10 (2) in e-minor op.72
TTITLE5=Smetana - My Fatherland, The Moldau
EXTD=Should be classical, not country! YEAR: 1993
EXTT0=
EXTT1=
EXTT2=
EXTT3=
EXTT4=
EXTT5=
PLAYORDER=
